<?xml version="1.0" encoding="utf-8"?>
<!-- Generator: Adobe Illustrator 24.0.1, SVG Export Plug-In . SVG Version: 6.00 Build 0)  -->
<svg version="1.1" id="Layer_1" xmlns="http://www.w3.org/2000/svg" xmlns:xlink="http://www.w3.org/1999/xlink" x="0px" y="0px"
	 viewBox="0 0 400 400" style="enable-background:new 0 0 400 400;" xml:space="preserve">
<style type="text/css">
	.st0{fill:#FFFFFF;}
	.st1{fill:#F7FF75;}
</style>
<g>
	<circle cx="199.67" cy="200.11" r="159"/>
	<g>
		<path class="st0" d="M268.28,186.53l-0.09,25.26c-0.04,10.74-2.17,20.2-6.38,28.37c-4.21,8.17-10.15,14.48-17.82,18.93
			c-7.68,4.45-16.55,6.65-26.64,6.61c-10.21-0.04-19.17-2.17-26.88-6.41c-7.71-4.24-13.67-10.21-17.89-17.92
			c-4.21-7.71-6.3-16.63-6.26-26.78l0.16-42.67c0.04-10.74,2.17-20.18,6.37-28.32c4.21-8.14,10.15-14.43,17.83-18.88
			c7.67-4.45,16.55-6.65,26.63-6.61c8.29,0.03,15.92,1.83,22.91,5.41c6.98,3.57,12.81,8.62,17.49,15.13
			c4.68,6.52,7.84,14.06,9.47,22.61l-21.98-0.08c-1.18-4.84-3.19-9.02-6.02-12.51c-2.84-3.49-6.18-6.15-10.02-7.99
			c-3.84-1.84-7.81-2.76-11.92-2.78c-5.97-0.02-11.21,1.38-15.73,4.21c-4.52,2.84-8.01,6.82-10.49,11.95
			c-2.47,5.13-3.72,11.11-3.75,17.94l-0.16,42.67c-0.02,6.23,1.22,11.69,3.72,16.37c2.5,4.68,6.05,8.33,10.65,10.93
			c4.6,2.6,9.92,3.91,15.95,3.94c5.97,0.02,11.22-1.3,15.73-3.97c4.52-2.67,8.01-6.55,10.48-11.65c2.47-5.1,3.72-11.16,3.75-18.19
			l0.02-6.27l-29.34-0.11l0.07-19.4L268.28,186.53z"/>
		<path class="st0" d="M169.3,140.14c4.57-8.32,10.96-14.88,18.99-19.54c8.38-4.86,18.14-7.3,29.04-7.26
			c9,0.03,17.43,2.03,25.06,5.93c7.63,3.9,14.09,9.49,19.2,16.6c5.07,7.06,8.53,15.31,10.28,24.51l1.08,5.69l-31.51-0.12l-0.88-3.63
			c-1-4.13-2.72-7.7-5.09-10.62c-2.41-2.96-5.15-5.15-8.37-6.7c-3.22-1.54-6.45-2.3-9.88-2.31c-5.09-0.02-9.4,1.12-13.18,3.49
			c-3.77,2.37-6.63,5.63-8.72,9.97c-2.15,4.46-3.25,9.81-3.27,15.89l-0.16,42.67c-0.02,5.4,1.04,10.15,3.16,14.1
			c2.09,3.91,4.96,6.86,8.79,9.03c3.85,2.18,8.43,3.3,13.61,3.32c5.14,0.02,9.49-1.06,13.28-3.31c3.73-2.2,6.54-5.34,8.62-9.62
			c2.15-4.43,3.25-9.85,3.27-16.12l0.01-1.49l-29.34-0.11l0.1-28.95l59.68,0.22l-0.11,30.04c-0.05,11.46-2.37,21.73-6.91,30.54
			c-4.57,8.96-11.22,15.98-19.67,20.88c-8.39,4.86-18.16,7.3-29.05,7.25c-10.97-0.04-20.78-2.39-29.16-7
			c-8.48-4.66-15.14-11.33-19.78-19.81c-4.58-8.38-6.89-18.17-6.85-29.09l0.16-42.67c0.04-11.46,2.37-21.72,6.91-30.5
			C168.84,140.98,169.07,140.56,169.3,140.14z M261.12,156.47c-1.65-5.55-4.09-10.59-7.28-15.03c-4.21-5.86-9.53-10.46-15.79-13.67
			c-6.28-3.21-13.26-4.86-20.75-4.88c-9.18-0.03-17.33,1.97-24.22,5.97c-6.94,4.02-12.15,9.58-15.98,16.94
			c-3.84,7.42-5.8,16.22-5.84,26.15l-0.16,42.67c-0.04,9.29,1.87,17.52,5.68,24.47c3.81,6.96,9.04,12.2,16,16.03
			c6.97,3.83,15.24,5.79,24.59,5.82c9.18,0.03,17.33-1.97,24.23-5.97c6.93-4.02,12.16-9.58,15.97-16.99
			c3.84-7.46,5.81-16.27,5.85-26.21l0.08-20.49l-40.58-0.15l-0.04,9.85l29.34,0.11l-0.04,11.04c-0.03,7.71-1.45,14.53-4.23,20.25
			c-2.86,5.93-7.03,10.54-12.35,13.68c-5.24,3.1-11.36,4.66-18.18,4.63c-6.83-0.03-12.98-1.56-18.28-4.56
			c-5.38-3.04-9.59-7.36-12.51-12.84c-2.87-5.36-4.31-11.64-4.28-18.64l0.16-42.67c0.03-7.51,1.45-14.24,4.22-19.99
			c2.84-5.92,6.97-10.6,12.25-13.92c5.29-3.31,11.45-4.97,18.29-4.95c4.8,0.02,9.5,1.11,13.97,3.25c4.47,2.14,8.39,5.27,11.66,9.29
			c2.54,3.12,4.51,6.73,5.9,10.76L261.12,156.47z"/>
	</g>
	<g>
		<path class="st1" d="M98.74,207.49L65.15,194.4l5.42-13.94l33.65,13.01L98.74,207.49z M84.46,233.16l-11.6-9.48l22.82-27.94
			l11.6,9.47L84.46,233.16z M108.99,200.9l-15.01-0.83l2.06-36.02l15.01,0.83L108.99,200.9z M127.26,226.77l-12.57,8.09l-19.52-30.3
			l12.63-8.17L127.26,226.77z M138.27,198.55l-34.89,9.21l-3.81-14.54l34.89-9.21L138.27,198.55z"/>
		<path class="st1" d="M113.34,241.11l-13.03-20.21L85.1,239.52l-18.6-15.2l15.21-18.62l-22.41-8.73l8.7-22.35l22.41,8.66
			l1.37-24.01l24.04,1.33l-1.37,24l23.24-6.14l6.1,23.3l-23.25,6.14l12.96,20.23L113.34,241.11z M106.32,213.54l9.72,15.08
			l4.98-3.21l-9.67-15.08l-3.07,0.81L106.32,213.54z M79.22,223.05l4.6,3.76l11.35-13.89l-1.69-2.62l-2.91-1.13L79.22,223.05z
			 M113.72,197.27l1.69,2.64l17.34-4.58l-1.52-5.8l-17.33,4.58L113.72,197.27z M71.01,191.83l16.72,6.51l1.96-2.4l0.18-3.17
			l-16.71-6.46L71.01,191.83z M99.27,186.72l2.92,1.13l3.06-0.81l1.02-17.9l-5.98-0.33L99.27,186.72z"/>
	</g>
</g>
</svg>
