<?xml version="1.0" encoding="utf-8"?>
<!-- Generator: Adobe Illustrator 24.0.1, SVG Export Plug-In . SVG Version: 6.00 Build 0)  -->
<svg version="1.1" id="Layer_1" xmlns="http://www.w3.org/2000/svg" xmlns:xlink="http://www.w3.org/1999/xlink" x="0px" y="0px"
	 viewBox="0 0 100 100" style="enable-background:new 0 0 100 100;" xml:space="preserve">
<style type="text/css">
	.st0{fill-rule:evenodd;clip-rule:evenodd;fill:#FFFFFF;}
	.st1{fill-rule:evenodd;clip-rule:evenodd;fill:#009DDF;}
	.st2{fill:#FFFFFF;}
</style>
<g>
	<path class="st0" d="M37.9,24.7c1.77-0.29,3.86-0.09,6.87,0.61c0,0,4.67-2.63,2.93-12.35c-0.86-4.95,21.98,1.25,15.58,7.31
		c-1.61,4.96-2.22,7.46-2.12,9.33c0.53,4.04,3.66,5.97,7.94,6.06c4.28-0.09,10.2-1.15,14.05-3.75c4.04-4.86,13.8,15.63,4.04,14.71
		c-3.11,1.07-5.58,2.19-7.41,3.37c-2.98,1.78-3.51,2.84-3.75,7.26c-0.73,6.99,12.55,6.97,14.09,9.5c2.74,3.44-3.7,15.9-9.23,13.96
		c-2.5-0.71-9.36-6.03-10.26-5.75c-4.08,0.13-5.7,2.12-5.57,3.84c-0.62,8.56-18.35,15.09-29.48,4.64
		c-15.32-6.46-21.31-26.58-20.53-63.8c-4.14-5.44,22.9-11.36,21.26-4.38c2.13,18.03,9.92,49.64,10.71,50.4
		C43.09,53.12,37.9,24.7,37.9,24.7z"/>
	<g>
		<path class="st1" d="M24.94,14.73c-4.03,0.93-7.14,2.46-6.96,3.41c0.19,0.95,3.6,0.96,7.63,0.03c4.03-0.94,7.14-2.46,6.96-3.41
			C32.38,13.81,28.97,13.8,24.94,14.73z"/>
		<path class="st1" d="M56.9,13.86c-3.47-1.23-6.59-1.56-6.97-0.74c-0.38,0.82,2.13,2.49,5.6,3.72c3.47,1.23,6.59,1.56,6.97,0.74
			C62.87,16.76,60.37,15.09,56.9,13.86z"/>
		<path class="st1" d="M88.13,38.29c-1.29-3.06-2.9-5.3-3.6-5.01c-0.7,0.3-0.22,3.03,1.06,6.09c1.29,3.07,2.9,5.3,3.6,5.01
			C89.9,44.08,89.42,41.35,88.13,38.29z"/>
		<path class="st1" d="M84.56,73.48c-1.49,2.7-2.21,5.15-1.61,5.49c0.6,0.34,2.31-1.58,3.8-4.27c1.49-2.7,2.22-5.15,1.61-5.49
			C87.76,68.87,86.06,70.78,84.56,73.48z"/>
	</g>
	<path d="M65.14,79.11c-0.03-1.53-0.97-2.89-2.83-4.03c-1-0.52-1.73-0.78-2.37-1.01c-0.54-0.19-1-0.35-1.47-0.63
		c-2.86-1.64-4.25-3.46-5.37-4.93c-0.64-0.85-1.2-1.59-1.89-2.03c-2.44-1.58-5.05-1.35-6.91,0.54c-1.52,1.54-2.37,3.97-2.34,6.66
		c-0.09,0.16-0.73,0.48-1.31,0.77c-2.53,1.28-7.24,3.66-5.31,9.07c1.4,2.6,7.38,5.38,14.05,5.38l0,0c3.32,0,8.14-0.7,12.27-4.03
		c2.27-2.01,3.43-3.91,3.46-5.61l0.01-0.05c0-0.03,0.01-0.06,0.01-0.09H65.14z"/>
	<path class="st2" d="M63.75,77.86c-1.02-0.08-1.62,0.46-2.01,0.82c-0.37,0.34-0.37,0.34-0.54,0.17c-0.21-0.21-0.37-0.45-0.52-0.69
		c-0.3-0.47-0.67-1.05-1.46-0.84c-0.54,0.19-0.98-0.05-1.5-0.32l-0.23-0.12c-0.1-0.05-0.21-0.04-0.3-0.01
		c-0.45-0.46-0.95-0.71-1.57-0.58l-2.89,1.04c-1.45-0.11-2.14-0.79-2.81-1.46c-0.59-0.59-1.36-1.2-2.42-1.13
		c-0.06-0.41-0.2-0.77-0.46-1.02c-0.48-0.44-2.41-0.29-2.98-1.82c-0.09-0.24-0.11-0.51-0.11-0.75c0-2.65,1.83-4.86,2.23-5.39
		c-0.44,0.1-1.46,0.77-1.71,1.09c-0.56,1.35-0.97,2.99-0.97,3.48c0,1.99,1.44,4.25,3.6,4.33l-0.05,0.47
		c-0.07,0.55-0.12,1.1-0.12,1.65c0,5.17,2.6,4.06,3.82,5.49l0.1,0.07c0.06,0,0.06-0.09,0.06-0.13c0-2.16-3.53-0.8-3.53-4.49
		c0-0.53,0.16-1.4,0.16-2.23c0.72-0.02,1.32,0.35,1.87,0.89c0.7,0.69,2.54,1.77,3.41,1.67c0.87-0.11,2.99-1.08,2.99-1.08
		c0.72-0.15,1.39,1.02,2.1,2.25c0.99,1.72,2.13,3.63,4.07,3.67c0.44,0,0.9-0.23,1.11-0.65c-0.01-0.19-0.18-0.06-0.47,0.04
		c-0.15,0.05-0.81,0.22-1.35-0.05c-1.03-0.48-2.02-2.1-2.74-3.36c-0.19-0.33-0.37-0.65-0.56-0.95c0.43,0.18,0.91,0.28,1.46,0.08
		c0.21-0.05,0.31,0.03,0.64,0.55c0.17,0.26,0.36,0.56,0.62,0.81c0.23,0.24,0.45,0.33,0.66,0.33c0.35,0,0.65-0.27,0.87-0.48
		c0.37-0.34,0.74-0.69,1.46-0.63c0.19,0.02,0.37-0.12,0.38-0.33C64.09,78.05,63.95,77.87,63.75,77.86z"/>
	<path d="M84.28,63.7c-3.73-1.02-7.6-2.07-7.6-5.92c0-5.5,2.44-7.63,6.42-9.29c1.2-0.5,2.54-0.96,3.95-1.44
		c0.04,0,0.09-0.01,0.11-0.02c3.1,0.17,4.91-1.5,4.91-4.51c0-3.31-3.2-11.73-7.2-11.73c-0.87,0-1.71,0.37-2.26,0.98
		c-0.43,0.21-0.85,0.44-1.25,0.67c-0.59,0.33-1.19,0.67-1.85,0.93c-3,1.18-6.88,1.92-10.12,1.92c-3.75,0-7.55-2.12-7.55-6.16
		c0-2.46,1.11-5.83,1.91-8.29l0.18-0.54c0.76-0.75,1.17-1.58,1.17-2.4c0-4.51-10.78-7.11-14.2-7.11c-0.54,0-3.23,0.07-3.78,1.49
		c-0.04,0.05-0.06,0.1-0.06,0.18c-0.04,0.15-0.06,0.28-0.06,0.41c0,0.7,0.1,1.42,0.2,2.11c0.1,0.71,0.21,1.44,0.21,2.15
		c0,1.94-0.56,6.02-2.68,7.71c-2.02-0.45-3.57-0.65-5.03-0.65c-0.49,0-1,0.03-1.52,0.08c-0.42-2.95-0.82-6.02-1.19-9.07
		c0.18-0.75,0.06-1.4-0.35-1.92c-1.03-1.3-3.62-1.57-5.62-1.57c-2.88,0-17.08,2.28-17.08,6.78c0,0.51,0.15,0.96,0.42,1.31
		c-0.34,16.43-1.13,54.77,20.61,63.93c3.72,3.48,8.75,5.47,13.82,5.47c6.6,0,16.22-3.26,16.96-10.52c0.17-1.68,0.98-2.62,2.64-3.05
		c0.34-0.11,0.72-0.16,1.13-0.16c1.12,0,2.08,0.42,2.08,0.42c0.75,0.43,1.49,0.91,2.2,1.37l0.25,0.16c0.21,0.13,0.46,0.31,0.75,0.49
		c1.89,1.26,5.05,3.36,6.88,3.36c5.21,0,9.78-7.61,9.78-12.2C91.45,65.65,87.81,64.66,84.28,63.7z M48.38,12.39
		c0-0.03,0.01-0.06,0.01-0.09l0.05-0.07c0.22-0.32,0.48-0.68,1.99-0.68c3.42,0,13.29,2.59,13.29,6.59c0,0.61-0.2,0.93-0.37,1.15
		c-0.29,0.21-0.77,0.56-2.1,0.56c-0.99,0-2.09-0.31-3.06-0.59c-0.75-0.22-1.39-0.4-1.85-0.4c-0.33,0-1,0.37-1,0.8
		c0,0.83,4.7,1.29,4.95,1.29c0.4,0,1.32-0.08,2.19-0.31l-0.13,0.39c-0.12,0.38-0.25,0.78-0.39,1.19c-0.56,0.08-1.18,0.13-1.84,0.13
		c-1.45,0-4.34-0.22-7.42-1.64c-0.15-0.07-0.34,0-0.41,0.15c-0.07,0.15,0,0.34,0.15,0.41c3.19,1.47,6.18,1.69,7.69,1.69
		c0.56,0,1.11-0.03,1.62-0.09c-0.63,2.01-1.32,4.52-1.32,6.49c0,0.97,0.21,1.88,0.63,2.7c-4.48-3.01-9.7-4.96-15.14-5.67
		c0.68-0.64,1.49-1.63,1.9-3c0.75-2.01,0.92-5.45,0.92-6.5c0-0.74-0.1-1.48-0.21-2.2c-0.1-0.73-0.2-1.41-0.2-2.09
		C48.36,12.53,48.37,12.46,48.38,12.39z M49.86,88.45c-5.28,0-9.77-1.74-13.76-5.33c-20.44-9-20.44-42.5-20.44-56.81l0.06-5.64
		c1.41,0.67,3.25,0.77,4.24,0.77c0.82,0,1.61-0.07,2.29-0.19c0.38-0.07,0.63-0.43,0.56-0.81c-0.07-0.37-0.42-0.63-0.81-0.56
		c-0.6,0.11-1.3,0.17-2.03,0.17c-1.66,0-3.69-0.31-4.41-1.17c-0.06-0.07-0.12-0.12-0.22-0.16c-0.02-0.08-0.03-0.16-0.03-0.22
		c0-4.08,12.21-6.01,15.22-6.01c2.35,0,5.16,0.4,5.16,2.31c0,0.05-0.01,0.11-0.02,0.17l-0.01,0.02c-1.3,1.77-4.27,3.08-9.11,3.99
		c-0.18,0.03-0.34,0.14-0.44,0.29c-0.11,0.16-0.14,0.34-0.11,0.53c0.07,0.37,0.43,0.62,0.81,0.56c4.37-0.83,7.23-1.94,8.99-3.48
		c0.22,1.81,0.43,3.43,0.63,4.92c-2.42,1.98-6.67,4.32-13.31,4.35c-0.11,0-0.21,0.04-0.29,0.12c-0.08,0.07-0.12,0.18-0.12,0.29
		c0,0.23,0.18,0.41,0.41,0.41c6.58-0.03,10.92-2.29,13.44-4.23c0.21,1.5,0.43,3.03,0.66,4.54c-2.92,3.01-6.71,3.68-11.88,3.78
		c-0.11,0-0.21,0.04-0.29,0.12c-0.07,0.08-0.11,0.18-0.11,0.29c0,0.22,0.19,0.4,0.42,0.4c5.14-0.09,8.97-0.74,12.02-3.6
		c0.22,1.39,0.46,2.85,0.73,4.45c-2.57,2.18-4.79,3.26-10.35,3.51c-0.23,0.01-0.4,0.2-0.39,0.42c0.01,0.22,0.19,0.39,0.43,0.39l0,0
		c5.6-0.26,7.97-1.35,10.47-3.4c0.27,1.55,0.52,2.94,0.77,4.25c-2.07,2.18-4.56,3.21-8.34,3.44c-0.11,0.01-0.21,0.06-0.28,0.14
		c-0.07,0.08-0.11,0.19-0.1,0.29c0.01,0.22,0.19,0.38,0.43,0.38c0,0,0,0,0,0c3.73-0.22,6.36-1.24,8.48-3.29
		c0.32,1.62,0.64,3.19,0.96,4.69c-1.87,2.03-4.35,2.33-5.67,2.33c-0.29,0-0.52-0.01-0.72-0.03c-0.21,0-0.39,0.16-0.41,0.38
		c-0.01,0.1,0.02,0.21,0.09,0.29c0.07,0.08,0.17,0.14,0.28,0.14c0.82,0.07,4.1,0.22,6.63-2.16c0.3,1.37,0.63,2.81,1.01,4.39
		c-0.94,0.96-2.58,1.57-4.2,1.57c-0.19,0-0.37-0.01-0.6-0.02c-0.21,0-0.39,0.16-0.4,0.37c-0.01,0.11,0.02,0.21,0.09,0.3
		c0.07,0.08,0.17,0.13,0.28,0.14c1.82,0.17,3.78-0.42,5.05-1.46c0.35,1.43,0.69,2.76,1.04,4.04c-0.85,0.96-1.95,1.16-2.73,1.16
		c-0.18,0-0.34-0.01-0.46-0.02l-0.05,0c-0.21,0-0.38,0.16-0.4,0.36c-0.01,0.11,0.02,0.22,0.09,0.3c0.07,0.08,0.16,0.13,0.27,0.15
		c0.15,0.01,0.34,0.03,0.56,0.03c0.82,0,1.98-0.19,2.97-1.07c0.26,0.97,0.54,1.94,0.82,2.91c-0.02,0.02-0.06,0.06-0.12,0.1
		c-0.51,0.38-1.58,0.65-1.77,0.66c-0.2-0.1-0.45-0.01-0.55,0.18c-0.1,0.2-0.02,0.44,0.18,0.55c0.08,0.04,0.18,0.06,0.32,0.06
		c0.52,0,1.43-0.3,1.96-0.58c0.08-0.04,0.15-0.08,0.23-0.13c0.78,2.64,1.56,5.07,2.36,7.41c0.04,0.12,0.18,0.19,0.41,0.19
		c0.12,0,0.95-0.1,0.94-0.46c0.01-0.01,0.69-1.79,0.9-3.8c2.02,0.98,4.81,1.34,6.78,1.34c1.13,0,2.08-0.1,2.68-0.31
		c0.1-0.03,0.19-0.11,0.24-0.21c0.05-0.1,0.06-0.21,0.02-0.31c-0.07-0.21-0.31-0.32-0.51-0.26c-0.52,0.18-1.37,0.27-2.39,0.27
		c-1.93,0-4.84-0.37-6.75-1.41c0.02-0.65-0.03-1.24-0.13-1.77c-0.02-0.08-0.05-0.16-0.07-0.24c4.66-0.37,8.26-1.26,13.73-4.81
		c0.09-0.06,0.15-0.15,0.18-0.26c0.02-0.11,0-0.22-0.06-0.31c-0.12-0.18-0.38-0.24-0.56-0.12c-5.42,3.51-8.84,4.34-13.58,4.7
		c-0.3-0.69-0.7-1.29-1.17-1.77c2.97-1.59,9.76-6.02,12.02-14.33c0.06-0.22-0.07-0.43-0.29-0.49c-0.21-0.06-0.44,0.07-0.5,0.28
		c-2.29,8.43-9.6,12.79-11.9,13.98c-0.25-0.17-0.5-0.31-0.77-0.43c2.91-6.45,3.29-13.84,1.14-21.96c-0.06-0.21-0.28-0.35-0.5-0.29
		c-0.22,0.06-0.35,0.28-0.29,0.5c2.11,7.97,1.73,15.2-1.13,21.5c-0.1-0.02-0.21-0.04-0.31-0.05c-2.36-8.5-4.27-17.58-5.83-27.77
		c0.72-0.21,1.53-0.31,2.47-0.32C51.9,27.7,61.06,32.5,66.87,40.48c6.16,8.46,8.01,18.8,5.34,29.93c-0.14,0.62-0.69,2.67-1.45,3.3
		c-0.98,0.8-2.22,1.16-2.46,1.23c-1.9,0.5-3.94,1.75-3.94,3.74C64.36,85.1,54.92,88.45,49.86,88.45z M82.39,80.54
		c-0.33-0.03-0.63-0.2-0.86-0.49c-0.15-0.2-0.3-0.71-0.32-0.88c-0.03-0.21-0.04-0.43-0.04-0.64c0-1.08,0.53-2.68,1.45-4.39
		c0.05-0.09,0.05-0.09,0.05-0.12c0-0.41-0.7-0.69-0.99-0.69c-0.97,0-1.86,4.11-1.86,4.79c0,0.43,0.1,1.12,0.37,1.75
		c-0.59-0.28-1.27-0.67-2.07-1.16c0-0.03,0-0.07,0-0.1c-0.49-2.43,1.01-5.04,2.92-8.35l0.22-0.38c0.08-0.15,0.03-0.34-0.11-0.42
		c-0.14-0.08-0.34-0.03-0.42,0.11l-0.22,0.38c-1.86,3.23-3.35,5.81-3.05,8.34c-0.57-0.37-1.15-0.75-1.71-1.12
		c-1.42-0.94-2.76-1.84-3.75-2.28c1.28-2.32,2.26-4.77,2.93-7.31c0.61-2.3,0.96-4.68,1.04-7.1c1.32,2.24,4.45,3.12,7.5,3.97
		c3.41,0.96,6.64,1.85,6.64,4.62C90.08,72.68,86.21,80.54,82.39,80.54z M83.91,31.82c0.13-0.15,0.26-0.29,0.43-0.29
		c3.36,0,6.37,8.64,6.37,11.24c0,1.7-0.66,3.51-2.5,3.51c-0.11,0-0.23-0.01-0.34-0.01l-0.13,0c-0.04-0.01-0.09-0.03-0.13-0.03
		c-2.14-0.32-4.38-5.48-4.91-7.48c-0.04-0.15-0.2-0.23-0.45-0.23c-0.2,0-0.95,0.13-0.95,0.53c0,1.5,2.42,6.3,4.63,7.65
		c-1.06,0.37-2.09,0.73-3.04,1.11c-2.74-1.61-3.84-5.8-4.66-9.61c-0.03-0.14-0.16-0.25-0.3-0.25l-0.07,0.01
		c-0.17,0.04-0.27,0.2-0.24,0.37c0.8,3.75,1.89,7.89,4.57,9.77c-2.88,1.23-5.6,2.94-6.52,6.79c-1.01-7.26-4.41-13.84-9.86-19.06
		c-0.12-0.11-0.23-0.22-0.35-0.33c1.07,0.36,2.23,0.55,3.37,0.55c4.4,0,10.69-1.23,14.82-3.97C83.74,32.01,83.82,31.92,83.91,31.82z
		"/>
	<g>
		<path d="M44.58,54.18c-0.42,0-0.77,0.34-0.77,0.77s0.35,0.77,0.77,0.77c0.43,0,0.77-0.35,0.77-0.77S45,54.18,44.58,54.18z"/>
		<path d="M46.67,54.41c-0.42,0-0.77,0.35-0.77,0.77c0,0.42,0.35,0.77,0.77,0.77s0.77-0.35,0.77-0.77
			C47.44,54.76,47.1,54.41,46.67,54.41z"/>
		<path d="M48.75,56.83c0-0.42-0.35-0.77-0.77-0.77c-0.42,0-0.77,0.35-0.77,0.77c0,0.42,0.35,0.77,0.77,0.77
			C48.41,57.6,48.75,57.25,48.75,56.83z"/>
		<path d="M51.06,55.19c0-0.42-0.34-0.77-0.77-0.77c-0.42,0-0.77,0.34-0.77,0.77c0,0.43,0.34,0.77,0.77,0.77
			C50.72,55.96,51.06,55.62,51.06,55.19z"/>
		<path d="M49.32,53.71c0-0.42-0.35-0.77-0.77-0.77s-0.77,0.35-0.77,0.77s0.35,0.77,0.77,0.77S49.32,54.13,49.32,53.71z"/>
		<path d="M46.56,52.19c0-0.42-0.35-0.77-0.77-0.77s-0.77,0.35-0.77,0.77c0,0.42,0.35,0.77,0.77,0.77S46.56,52.62,46.56,52.19z"/>
		<path d="M44.46,51.62c0-0.42-0.35-0.77-0.77-0.77c-0.43,0-0.77,0.35-0.77,0.77c0,0.43,0.35,0.77,0.77,0.77
			C44.11,52.39,44.46,52.04,44.46,51.62z"/>
		<path d="M45.77,50.65c0.43,0,0.77-0.34,0.77-0.77s-0.34-0.77-0.77-0.77c-0.42,0-0.77,0.35-0.77,0.77S45.35,50.65,45.77,50.65z"/>
		<path d="M42.92,49.11c0,0.42,0.35,0.77,0.77,0.77c0.42,0,0.77-0.35,0.77-0.77c0-0.42-0.35-0.77-0.77-0.77
			C43.26,48.34,42.92,48.68,42.92,49.11z"/>
		<path d="M47.99,51.96c0.42,0,0.77-0.34,0.77-0.77s-0.34-0.77-0.77-0.77c-0.43,0-0.77,0.34-0.77,0.77S47.56,51.96,47.99,51.96z"/>
		<path d="M51.3,52.68c0-0.42-0.34-0.76-0.77-0.76c-0.42,0-0.77,0.34-0.77,0.76c0,0.43,0.35,0.77,0.77,0.77
			C50.96,53.45,51.3,53.11,51.3,52.68z"/>
		<path d="M51.91,54.09c0,0.42,0.35,0.77,0.77,0.77s0.77-0.35,0.77-0.77s-0.35-0.77-0.77-0.77S51.91,53.66,51.91,54.09z"/>
		<path d="M52.39,57.6c0.43,0,0.77-0.34,0.77-0.77c0-0.42-0.35-0.77-0.77-0.77c-0.42,0-0.77,0.35-0.77,0.77
			C51.62,57.25,51.96,57.6,52.39,57.6z"/>
		<path d="M50.54,57.5c0-0.42-0.35-0.77-0.77-0.77S49,57.08,49,57.5s0.35,0.77,0.77,0.77S50.54,57.93,50.54,57.5z"/>
		<path d="M48.18,59.71c0,0.43,0.34,0.77,0.77,0.77c0.43,0,0.77-0.34,0.77-0.77c0-0.42-0.35-0.77-0.77-0.77
			C48.52,58.95,48.18,59.29,48.18,59.71z"/>
		<path d="M50.68,59.91c-0.43,0-0.77,0.35-0.77,0.77s0.35,0.77,0.77,0.77c0.42,0,0.77-0.34,0.77-0.77S51.1,59.91,50.68,59.91z"/>
		<path d="M52.48,62.02c0.42,0,0.77-0.35,0.77-0.77c0-0.43-0.35-0.77-0.77-0.77s-0.77,0.35-0.77,0.77
			C51.71,61.68,52.06,62.02,52.48,62.02z"/>
		<path d="M52.38,60.1c0.42,0,0.77-0.35,0.77-0.77c0-0.42-0.35-0.77-0.77-0.77s-0.77,0.35-0.77,0.77
			C51.61,59.75,51.96,60.1,52.38,60.1z"/>
		<path d="M55.84,62.1c0.42,0,0.77-0.35,0.77-0.77c0-0.43-0.35-0.77-0.77-0.77c-0.43,0-0.77,0.34-0.77,0.77
			C55.07,61.76,55.42,62.1,55.84,62.1z"/>
		<path d="M48.47,62.79c-0.42,0-0.77,0.34-0.77,0.77c0,0.42,0.35,0.77,0.77,0.77c0.43,0,0.77-0.35,0.77-0.77
			C49.24,63.14,48.89,62.79,48.47,62.79z"/>
		<path d="M49.91,63.85c-0.42,0-0.77,0.35-0.77,0.77c0,0.42,0.35,0.77,0.77,0.77s0.77-0.35,0.77-0.77
			C50.68,64.19,50.33,63.85,49.91,63.85z"/>
		<path d="M50.39,62.12c-0.42,0-0.77,0.35-0.77,0.77c0,0.43,0.35,0.77,0.77,0.77c0.42,0,0.77-0.34,0.77-0.77
			C51.16,62.46,50.81,62.12,50.39,62.12z"/>
		<path d="M52.79,64.53c0.42,0,0.77-0.35,0.77-0.77c0-0.42-0.35-0.77-0.77-0.77c-0.42,0-0.77,0.34-0.77,0.77
			C52.02,64.18,52.37,64.53,52.79,64.53z"/>
		<path d="M52.02,64.53c-0.42,0-0.77,0.34-0.77,0.76c0,0.43,0.35,0.77,0.77,0.77c0.43,0,0.77-0.35,0.77-0.77
			C52.8,64.87,52.45,64.53,52.02,64.53z"/>
		<path d="M54.43,64.43c-0.42,0-0.77,0.34-0.77,0.77s0.35,0.77,0.77,0.77s0.77-0.34,0.77-0.77S54.85,64.43,54.43,64.43z"/>
		<path d="M56.36,63.47c0-0.42-0.35-0.77-0.77-0.77s-0.77,0.35-0.77,0.77s0.34,0.77,0.77,0.77S56.36,63.89,56.36,63.47z"/>
		<path d="M54.02,66.54c-0.42,0-0.77,0.35-0.77,0.77c0,0.42,0.35,0.77,0.77,0.77c0.42,0,0.77-0.35,0.77-0.77
			C54.78,66.89,54.44,66.54,54.02,66.54z"/>
		<path d="M57.6,66.05c0-0.42-0.34-0.77-0.77-0.77c-0.43,0-0.77,0.35-0.77,0.77c0,0.43,0.35,0.77,0.77,0.77
			C57.26,66.82,57.6,66.48,57.6,66.05z"/>
		<path d="M54.57,58.99c-0.43,0-0.77,0.35-0.77,0.77s0.35,0.77,0.77,0.77c0.42,0,0.77-0.34,0.77-0.77S54.99,58.99,54.57,58.99z"/>
		<path d="M41.66,44.22c-0.42,0-0.76,0.34-0.76,0.76c0,0.42,0.34,0.76,0.76,0.76c0.42,0,0.77-0.34,0.77-0.76
			C42.43,44.56,42.08,44.22,41.66,44.22z"/>
		<path d="M43.45,46.03c0,0.42,0.34,0.77,0.77,0.77c0.42,0,0.76-0.34,0.76-0.77c0-0.42-0.34-0.76-0.76-0.76
			C43.79,45.27,43.45,45.61,43.45,46.03z"/>
		<path d="M46.06,48.56c0.42,0,0.76-0.34,0.76-0.76c0-0.42-0.34-0.76-0.76-0.76c-0.42,0-0.76,0.34-0.76,0.76
			C45.29,48.22,45.63,48.56,46.06,48.56z"/>
		<path d="M48.78,47.33c0.42,0,0.76-0.34,0.76-0.76c0-0.42-0.34-0.76-0.76-0.76c-0.42,0-0.76,0.34-0.76,0.76
			C48.02,46.98,48.36,47.33,48.78,47.33z"/>
		<path d="M50.75,48.76c0,0.42,0.34,0.76,0.76,0.76c0.42,0,0.76-0.34,0.76-0.76c0-0.42-0.34-0.76-0.76-0.76
			C51.09,48,50.75,48.34,50.75,48.76z"/>
		<path d="M54.24,48.21c0.42,0,0.76-0.34,0.76-0.76c0-0.42-0.34-0.76-0.76-0.76s-0.77,0.34-0.77,0.76
			C53.47,47.87,53.81,48.21,54.24,48.21z"/>
		<path d="M56.17,46.28c0.42,0,0.76-0.35,0.76-0.77c0-0.42-0.34-0.76-0.76-0.76c-0.42,0-0.76,0.34-0.76,0.76
			C55.41,45.93,55.75,46.28,56.17,46.28z"/>
		<path d="M50.9,44.52c0.42,0,0.76-0.35,0.76-0.77c0-0.42-0.34-0.76-0.76-0.76c-0.42,0-0.77,0.34-0.77,0.76
			C50.13,44.17,50.47,44.52,50.9,44.52z"/>
		<path d="M49.4,39.94c0.42,0,0.77-0.34,0.77-0.76c0-0.42-0.34-0.77-0.77-0.77c-0.42,0-0.76,0.35-0.76,0.77
			C48.63,39.6,48.98,39.94,49.4,39.94z"/>
		<path d="M46.5,42.05c0.42,0,0.76-0.34,0.76-0.76c0-0.42-0.34-0.77-0.76-0.77c-0.42,0-0.76,0.34-0.76,0.77
			C45.73,41.71,46.08,42.05,46.5,42.05z"/>
		<path d="M44.18,41.82c0-0.42-0.34-0.77-0.76-0.77c-0.42,0-0.77,0.35-0.77,0.77c0,0.42,0.34,0.76,0.77,0.76
			C43.84,42.58,44.18,42.23,44.18,41.82z"/>
		<path d="M41.46,40.67c0-0.42-0.35-0.76-0.76-0.76c-0.42,0-0.77,0.34-0.77,0.76c0,0.42,0.34,0.76,0.77,0.76
			C41.11,41.44,41.46,41.09,41.46,40.67z"/>
		<path d="M43.5,38.27c0.42,0,0.77-0.34,0.77-0.76c0-0.42-0.34-0.76-0.77-0.76c-0.42,0-0.76,0.34-0.76,0.76
			C42.74,37.93,43.08,38.27,43.5,38.27z"/>
		<path d="M54.15,52.61c0.42,0,0.76-0.35,0.76-0.77c0-0.42-0.34-0.76-0.76-0.76c-0.42,0-0.76,0.34-0.76,0.76
			C53.38,52.26,53.73,52.61,54.15,52.61z"/>
		<path d="M56.02,54.21c0,0.42,0.34,0.77,0.76,0.77c0.42,0,0.76-0.34,0.76-0.77c0-0.42-0.34-0.76-0.76-0.76
			C56.37,53.45,56.02,53.8,56.02,54.21z"/>
		<path d="M59.1,52.9c0,0.42,0.34,0.76,0.77,0.76s0.77-0.34,0.77-0.76c0-0.42-0.34-0.77-0.77-0.77S59.1,52.47,59.1,52.9z"/>
		<path d="M60.1,47.8c0-0.42-0.34-0.76-0.77-0.76c-0.42,0-0.76,0.34-0.76,0.76c0,0.42,0.34,0.76,0.76,0.76
			C59.76,48.56,60.1,48.22,60.1,47.8z"/>
		<path d="M56.73,58.35c0,0.42,0.34,0.76,0.77,0.76c0.42,0,0.76-0.34,0.76-0.76c0-0.42-0.34-0.76-0.76-0.76
			C57.07,57.59,56.73,57.93,56.73,58.35z"/>
		<path d="M61.45,60.58c-0.42,0-0.77,0.34-0.77,0.76c0,0.42,0.34,0.76,0.77,0.76c0.42,0,0.76-0.35,0.76-0.76
			C62.21,60.92,61.87,60.58,61.45,60.58z"/>
		<path d="M61.27,57c0.42,0,0.77-0.35,0.77-0.77c0-0.42-0.34-0.77-0.77-0.77c-0.42,0-0.76,0.34-0.76,0.77
			C60.51,56.66,60.85,57,61.27,57z"/>
		<path d="M59.86,68.14c-0.42,0-0.77,0.34-0.77,0.76c0,0.42,0.34,0.76,0.77,0.76s0.77-0.34,0.77-0.76
			C60.63,68.48,60.29,68.14,59.86,68.14z"/>
		<path d="M59.77,65.53c0.42,0,0.77-0.34,0.77-0.76c0-0.42-0.34-0.76-0.77-0.76c-0.42,0-0.76,0.34-0.76,0.76
			C59.01,65.19,59.35,65.53,59.77,65.53z"/>
		<path d="M57.58,69.1c-0.42,0-0.76,0.34-0.76,0.76c0,0.42,0.34,0.76,0.76,0.76c0.42,0,0.76-0.34,0.76-0.76
			C58.34,69.45,58,69.1,57.58,69.1z"/>
		<path d="M63.12,72.27c-0.42,0-0.76,0.35-0.76,0.76c0,0.42,0.34,0.77,0.76,0.77c0.42,0,0.77-0.34,0.77-0.77
			C63.88,72.62,63.54,72.27,63.12,72.27z"/>
		<path d="M65.23,67.44c-0.42,0-0.76,0.34-0.76,0.76c0,0.42,0.34,0.77,0.76,0.77c0.42,0,0.76-0.34,0.76-0.77
			C65.99,67.78,65.65,67.44,65.23,67.44z"/>
		<path d="M66.28,61.72c-0.42,0-0.76,0.34-0.76,0.76c0,0.42,0.34,0.77,0.76,0.77s0.76-0.35,0.76-0.77
			C67.05,62.06,66.71,61.72,66.28,61.72z"/>
		<path d="M54,56.32c0,0.42,0.34,0.76,0.76,0.76c0.42,0,0.76-0.34,0.76-0.76c0-0.42-0.34-0.76-0.76-0.76
			C54.34,55.56,54,55.9,54,56.32z"/>
	</g>
	<path class="st0" d="M45.48,82.93c0-0.03-0.07-1.37-0.31-1.41c-1.2-0.21-2.4-0.43-3.56-0.8c-0.23-0.07-0.49,0.06-0.67-1.4
		c-0.12-0.99-0.21-3.67-0.21-3.94c0-0.26-0.01-0.66-0.04-0.94c-0.36,0.18-1.57,0.83-1.57,0.83s0.75,0.57,0.8,0.93
		c0,0.04-0.01,0.08-0.01,0.13c0,0.6,0.11,1.22,0.24,1.8l0.09,0.39v0.01l-0.04,0.35c-0.05,0.29-0.25,0.56-0.25,0.85
		c0,0.44,0.09,0.81,0.23,1.13c0,0.03,0.01,0.06,0.01,0.09l0.01-0.04c0.17,0.34,0.41,0.61,0.71,0.83c0.02,0.32-0.12,0.98-0.18,1.25
		c-0.05,0.25-0.1,0.46-0.12,0.63l0,0.04l0,0.04c0.06,0.57,0.57,0.86,1.01,1.11c0.22,0.13,0.45,0.25,0.6,0.4
		c0.07,0.07,0.16,0.1,0.25,0.1c0.09,0,0.18-0.04,0.25-0.1c0.14-0.14,0.14-0.36,0-0.51c-0.22-0.22-0.49-0.37-0.75-0.51
		c-0.36-0.2-0.6-0.35-0.64-0.53c0.02-0.14,0.06-0.32,0.1-0.51c0.07-0.33,0.14-0.68,0.18-1.01c0.91,0.39,2.05,0.54,3.08,0.69
		c-0.25,0.53-0.45,1.07-0.45,1.68c0,0.15,0.24,2.83,0.97,2.83l0.02-0.07c0-0.31-0.22-1.72-0.64-2.11
		C44.85,84.23,45.5,83.18,45.48,82.93z"/>
</g>
</svg>
